<svg width="23" height="22" viewBox="0 0 23 22" fill="none" xmlns="http://www.w3.org/2000/svg">
<path d="M20.3473 4.31203H19.4514L15.8284 0.846509C15.6191 0.646275 15.2903 0.617701 15.0464 0.778404L12.6902 2.33271L11.1364 0.846466C10.927 0.646232 10.5981 0.617615 10.3544 0.778361L5.01845 4.29836C5.01193 4.30266 5.00618 4.30751 4.99994 4.31198H2.65268C1.18998 4.31203 0 5.45027 0 6.84933V18.788C0 20.187 1.18998 21.3253 2.65268 21.3253H20.3474C21.81 21.3253 23 20.1871 23 18.788V6.84933C23 5.45027 21.81 4.31203 20.3473 4.31203ZM15.3222 2.02179L17.7166 4.31203H11.8505L15.3222 2.02179ZM10.6302 2.02179L11.6634 3.01007L9.7104 4.29845C9.70389 4.30274 9.69814 4.3076 9.69189 4.31207H7.15839L10.6302 2.02179ZM21.7733 15.1653H16.4987C16.0421 15.1653 15.6707 14.8101 15.6707 14.3733V11.264C15.6707 10.8272 16.0421 10.472 16.4987 10.472H21.7734V15.1653H21.7733ZM21.7733 9.29868H16.4987C15.3658 9.29868 14.444 10.1803 14.444 11.264V14.3734C14.444 15.457 15.3657 16.3387 16.4987 16.3387H21.7734V18.7881C21.7734 19.5402 21.1337 20.1521 20.3474 20.1521H2.65268C1.86637 20.1521 1.22668 19.5402 1.22668 18.7881V6.84933C1.22668 6.09721 1.86637 5.48533 2.65268 5.48533H20.3474C21.1337 5.48533 21.7734 6.09721 21.7734 6.84933V9.29868H21.7733Z" fill="white"/>
</svg>
